#!OML:ASF I:\Actors\actors\Patient Classification 2\Patient 1\Session 1\actor1.ASF
:FULLY-SPECIFIED
:DEGREES
608
root -0.600089 18.5009 6.65692 -2.36329 4.39583 -5.9866
lowerback 9.05978 -0.875718 4.28021
upperback -4.47695 -0.538018 0.751795
thorax -9.93422 -0.510569 -1.50831
lowerneck -15.4626 -2.93918 -3.46921
upperneck 30.7755 -4.06636 2.44102
head 12.9806 -1.88053 0.910005
rclavicle -4.57205e-015 2.5842e-014
rhumerus -16.8423 -18.0911 2.84885
rradius 109.26
rwrist -66.0968
rhand 47.665 -32.2236
rfingers 7.12502
rthumb 68.354 -32.5893
lclavicle -4.57205e-015 2.5842e-014
lhumerus -9.86641 -2.85742 20.7572
lradius 101.296
lwrist 53.3214
lhand 1.52521 -27.9843
lfingers 7.12502
lthumb 27.0504 0.098256
rfemur 15.0568 -0.593279 20.0494
rtibia -7.95139e-015
rfoot -19.9186 -11.2799
rtoes -15.6045
lfemur -3.14601 -4.20583 -7.89565
ltibia 28.2798
lfoot -22.8835 4.93014
ltoes -57.4256
609
root -0.601081 18.4987 6.67157 -2.30935 4.28889 -5.91031
lowerback 9.09471 -0.789514 3.99688
upperback -4.69801 -0.438738 0.887587
thorax -10.1879 -0.445322 -1.21814
lowerneck -15.5284 -2.98432 -3.64042
upperneck 31.1591 -4.07189 2.38441
head 13.1594 -1.90891 0.916772
rclavicle -6.85807e-015 -1.82882e-014
rhumerus -17.641 -17.7063 3.65576
rradius 108.135
rwrist -65.0965
rhand 46.5959 -31.8797
rfingers 7.12502
rthumb 67.5813 -34.0713
lclavicle -6.85807e-015 -1.82882e-014
lhumerus -10.5031 -1.79191 20.3731
lradius 101.117
lwrist 53.2498
lhand 1.74761 -28.1998
lfingers 7.12502
lthumb 27.2632 -0.150457
rfemur 15.0505 -0.483463 19.9788
rtibia 1.74931e-014
rfoot -19.9943 -11.1494
rtoes -15.0971
lfemur -3.01966 -4.2793 -7.99905
ltibia 28.1253
lfoot -23.0161 5.10579
ltoes -57.4417
610
root -0.602331 18.4981 6.68543 -2.25776 4.17088 -5.88831
lowerback 8.97677 -0.739248 3.98382
upperback -4.82102 -0.37576 0.882816
thorax -10.2507 -0.416806 -1.2268
lowerneck -15.5849 -2.98627 -3.73037
upperneck 31.3996 -4.08622 2.4829
head 13.279 -1.91154 0.968526
rclavicle 1.19768e-014 9.93923e-015
rhumerus -18.6903 -17.385 4.23809
rradius 107.19
rwrist -64.6172
rhand 45.2223 -31.9305
rfingers 7.12502
rthumb 66.5559 -36.2836
lclavicle 1.19768e-014 9.93923e-015
lhumerus -10.9405 -0.659053 19.6978
lradius 100.806
lwrist 53.1511
lhand 1.79555 -28.369
lfingers 7.12502
lthumb 27.309 -0.326851
rfemur 15.031 -0.36572 19.9692
rtibia 1.59028e-015
rfoot -20.0644 -11.0393
rtoes -14.6355
lfemur -2.89563 -4.37413 -8.04388
ltibia 27.9746
lfoot -23.1471 5.27077
ltoes -57.4753
611
root -0.60453 18.4995 6.69757 -2.15268 4.07179 -5.88016
lowerback 8.88682 -0.702968 3.95542
upperback -4.98601 -0.330801 0.878612
thorax -10.3778 -0.397365 -1.22224
lowerneck -15.5398 -2.97946 -3.77499
upperneck 31.5051 -4.10898 2.60321
head 13.3193 -1.91103 1.02077
rclavicle 1.48095e-014 7.15625e-015
rhumerus -19.7538 -17.1061 4.81623
rradius 106.223
rwrist -63.6861
rhand 44.4827 -31.6127
rfingers 7.12502
rthumb 65.9902 -37.0497
lclavicle 1.48095e-014 7.15625e-015
lhumerus -11.4747 0.459121 18.9539
lradius 100.673
lwrist 53.1163
lhand 1.7106 -28.3683
lfingers 7.12502
lthumb 27.2278 -0.313368
rfemur 14.9514 -0.268058 19.9771
rtibia 0
rfoot -20.1544 -10.9349
rtoes -14.1807
lfemur -2.84468 -4.54838 -8.08381
ltibia 27.8324
lfoot -23.2555 5.48811
ltoes -57.4616
612
root -0.607623 18.5006 6.71034 -2.04335 3.96659 -5.85709
lowerback 8.76305 -0.676119 3.85702
upperback -5.11324 -0.308969 0.892877
thorax -10.4429 -0.381882 -1.15511
lowerneck -15.5501 -2.94838 -3.68608
upperneck 31.5405 -4.08142 2.57139
head 13.3322 -1.89255 0.997355
rclavicle 1.1281e-014 6.36111e-015
rhumerus -20.7039 -16.9755 5.37265
rradius 105.095
rwrist -61.8288
rhand 43.9551 -30.5227
rfingers 7.12502
rthumb 65.5813 -36.7011
lclavicle 1.1281e-014 6.36111e-015
lhumerus -12.1483 1.69394 18.1726
lradius 100.507
lwrist 53.0624
lhand 1.15248 -28.2788
lfingers 7.12502
lthumb 26.6938 -0.141325
rfemur 14.8665 -0.164071 19.9726
rtibia 5.08889e-014
rfoot -20.2053 -10.89
rtoes -14.3151
lfemur -2.79963 -4.68943 -8.13443
ltibia 27.6984
lfoot -23.3454 5.70558
ltoes -57.4557
613
root -0.611447 18.5005 6.72512 -1.96691 3.8183 -5.80838
lowerback 8.62631 -0.640653 3.70846
upperback -5.19275 -0.282675 0.921965
thorax -10.4459 -0.358468 -1.0453
lowerneck -15.6759 -2.9206 -3.58713
upperneck 31.6418 -4.03815 2.47522
head 13.3958 -1.87329 0.948159
rclavicle 2.05742e-014 1.39149e-014
rhumerus -21.5708 -16.9938 5.88578
rradius 103.853
rwrist -59.4423
rhand 43.2668 -29.6737
rfingers 7.12502
rthumb 65.0416 -36.7813
lclavicle 2.05742e-014 1.39149e-014
lhumerus -12.8652 2.97427 17.3428
lradius 100.147
lwrist 52.9208
lhand 0.123353 -28.1434
lfingers 7.12502
lthumb 25.7085 0.140376
rfemur 14.8192 -0.0165823 19.9468
rtibia 3.18055e-014
rfoot -20.2352 -10.8917
rtoes -14.8642
lfemur -2.70748 -4.67897 -8.19074
ltibia 27.5715
lfoot -23.3882 5.825
ltoes -57.4907
614
root -0.616407 18.501 6.74098 -1.90113 3.65878 -5.8093
lowerback 8.50874 -0.60754 3.61338
upperback -5.27203 -0.251936 0.944194
thorax -10.4609 -0.33707 -0.973472
lowerneck -15.8093 -2.90537 -3.47475
upperneck 31.7686 -4.02631 2.40158
head 13.4737 -1.86304 0.900267
rclavicle 5.11871e-015 7.55382e-015
rhumerus -22.421 -17.0243 6.32328
rradius 102.559
rwrist -57.489
rhand 42.3698 -29.2833
rfingers 7.12502
rthumb 64.3281 -37.5405
lclavicle 5.11871e-015 7.55382e-015
lhumerus -13.4549 4.22736 16.5002
lradius 99.5456
lwrist 52.6587
lhand -0.512148 -28.1095
lfingers 7.12502
lthumb 25.0997 0.260831
rfemur 14.7885 0.139278 19.979
rtibia 4.77083e-015
rfoot -20.2973 -10.8803
rtoes -15.205
lfemur -2.60198 -4.65104 -8.18308
ltibia 27.4493
lfoot -23.4443 5.90567
ltoes -57.4869
615
root -0.620808 18.5026 6.75438 -1.81485 3.52357 -5.83711
lowerback 8.4406 -0.582367 3.60169
upperback -5.37905 -0.220331 0.938339
thorax -10.538 -0.323494 -0.978032
lowerneck -15.8938 -2.87781 -3.42908
upperneck 31.8506 -4.01423 2.4414
head 13.5266 -1.84586 0.909245
rclavicle 1.57537e-014 -1.19271e-014
rhumerus -23.2563 -16.9668 6.70733
rradius 101.274
rwrist -56.5302
rhand 41.2748 -29.0491
rfingers 7.12502
rthumb 63.4432 -38.6219
lclavicle 1.57537e-014 -1.19271e-014
lhumerus -14.0095 5.43487 15.6301
lradius 98.8348
lwrist 52.4404
lhand -0.635525 -28.074
lfingers 7.12502
lthumb 24.9815 0.31277
rfemur 14.7289 0.270281 20.0352
rtibia 4.29375e-014
rfoot -20.3146 -10.8422
rtoes -15.2534
lfemur -2.53138 -4.72491 -8.15707
ltibia 27.3291
lfoot -23.5641 6.03753
ltoes -57.3923
616
root -0.624107 18.5049 6.76581 -1.69948 3.39799 -5.81371
lowerback 8.38835 -0.548423 3.59213
upperback -5.50193 -0.177875 0.906873
thorax -10.6421 -0.306535 -1.01297
lowerneck -15.9281 -2.86865 -3.49631
upperneck 31.8984 -4.02322 2.56579
head 13.5601 -1.84064 0.968379
rclavicle -1.26228e-014 3.97569e-016
rhumerus -24.0823 -16.8645 7.08717
rradius 100.065
rwrist -55.8168
rhand 40.32 -28.8953
rfingers 7.12502
rthumb 62.6599 -39.5425
lclavicle -1.26228e-014 3.97569e-016
lhumerus -14.7437 6.58797 14.7229
lradius 98.224
lwrist 52.5023
lhand -0.569647 -27.9257
lfingers 7.12502
lthumb 25.0446 0.452368
rfemur 14.636 0.394211 20.0331
rtibia -1.59028e-014
rfoot -20.3085 -10.8126
rtoes -15.1889
lfemur -2.50381 -4.81356 -8.19697
ltibia 27.2138
lfoot -23.6576 6.212
ltoes -57.3282
617
root -0.627639 18.5063 6.77797 -1.61084 3.2663 -5.78107
lowerback 8.32302 -0.512095 3.54587
upperback -5.59836 -0.137288 0.887135
thorax -10.7084 -0.286476 -1.01477
lowerneck -15.9187 -2.87655 -3.53182
upperneck 31.9259 -4.04792 2.63023
head 13.5736 -1.84723 0.996187
rclavicle -9.93923e-016 -1.59028e-015
rhumerus -24.8457 -16.8094 7.44336
rradius 98.9181
rwrist -54.4036
rhand 39.4763 -28.5116
rfingers 7.12502
rthumb 61.9597 -40.0556
lclavicle -9.93923e-016 -1.59028e-015
lhumerus -15.5681 7.74833 13.7443
lradius 97.5741
lwrist 52.9633
lhand -0.437829 -27.7191
lfingers 7.12502
lthumb 25.1709 0.641247
rfemur 14.5745 0.524674 20.0201
rtibia 3.18055e-014
rfoot -20.3504 -10.7892
rtoes -15.2584
lfemur -2.45126 -4.83635 -8.2434
ltibia 27.1011
lfoot -23.7092 6.3625
ltoes -57.3351
618
root -0.631262 18.5071 6.79045 -1.54182 3.11792 -5.76019
lowerback 8.21333 -0.479193 3.48522
upperback -5.65426 -0.106149 0.870088
thorax -10.7028 -0.26834 -1.00457
lowerneck -15.9161 -2.84406 -3.45166
upperneck 31.9322 -4.02988 2.64131
head 13.573 -1.82826 0.989717
rclavicle -1.0635e-014 7.95139e-015
rhumerus -25.5357 -16.8975 7.72356
rradius 97.7583
rwrist -52.4276
rhand 38.6287 -28.0018
rfingers 7.12502
rthumb 61.249 -40.4005
lclavicle -1.0635e-014 7.95139e-015
lhumerus -16.2649 8.89845 12.7411
lradius 96.7394
lwrist 53.5912
lhand -0.448243 -27.5732
lfingers 7.12502
lthumb 25.161 0.788585
rfemur 14.5249 0.671615 20.0179
rtibia 2.22639e-014
rfoot -20.4319 -10.7603
rtoes -15.3043
lfemur -2.36701 -4.84492 -8.27823
ltibia 26.9852
lfoot -23.7853 6.51317
ltoes -57.3264
619
root -0.634004 18.5083 6.80231 -1.47591 2.96577 -5.72949
lowerback 8.08697 -0.445073 3.43861
upperback -5.69324 -0.0752871 0.826115
thorax -10.6685 -0.252013 -1.03133
lowerneck -15.8865 -2.7823 -3.29412
upperneck 31.8703 -3.99465 2.66268
head 13.5346 -1.79138 0.976778
rclavicle 1.12313e-014 1.11319e-014
rhumerus -26.2086 -17.0616 7.94481
rradius 96.5359
rwrist -50.4584
rhand 38.0014 -27.5284
rfingers 7.12502
rthumb 60.7188 -40.5313
lclavicle 1.12313e-014 1.11319e-014
lhumerus -16.7043 10.1313 12.0489
lradius 95.5863
lwrist 53.6789
lhand -0.401566 -27.5569
lfingers 7.12502
lthumb 25.2057 0.798539
rfemur 14.4787 0.822874 20.0033
rtibia -6.36111e-015
rfoot -20.5045 -10.7484
rtoes -15.1922
lfemur -2.27519 -4.89233 -8.33394
ltibia 26.8722
lfoot -23.8847 6.68195
ltoes -57.2544
620
root -0.636318 18.5082 6.8133 -1.4445 2.83854 -5.68602
lowerback 8.02421 -0.405629 3.38863
upperback -5.72729 -0.0353103 0.776823
thorax -10.6665 -0.231665 -1.06315
lowerneck -15.8856 -2.76233 -3.21835
upperneck 31.8345 -4.01761 2.74832
head 13.5201 -1.78071 0.993631
rclavicle -2.79292e-014 -3.97569e-015
rhumerus -26.894 -17.1068 8.1993
rradius 95.3098
rwrist -48.9479
rhand 37.095 -27.2345
rfingers 7.12502
rthumb 59.9466 -41.0707
lclavicle -2.79292e-014 -3.97569e-015
lhumerus -17.1342 11.3986 11.4569
lradius 94.3137
lwrist 53.28
lhand -0.416199 -27.5283
lfingers 7.12502
lthumb 25.1917 0.829127
rfemur 14.4747 0.95008 19.9708
rtibia -4.29375e-014
rfoot -20.5176 -10.7494
rtoes -15.2249
lfemur -2.16505 -4.95395 -8.40623
ltibia 26.7734
lfoot -23.9728 6.81624
ltoes -57.1885
621
root -0.639706 18.5077 6.82326 -1.43264 2.74472 -5.6592
lowerback 8.032 -0.371425 3.31963
upperback -5.76803 0.00200316 0.763251
thorax -10.7145 -0.2103 -1.04509
lowerneck -15.9555 -2.77507 -3.19198
upperneck 31.8972 -4.05395 2.77263
head 13.5638 -1.78907 0.992203
rclavicle 1.12313e-014 1.27222e-014
rhumerus -27.5319 -17.0058 8.51363
rradius 94.0935
rwrist -48.0055
rhand 35.8435 -27.1243
rfingers 7.12502
rthumb 58.8695 -42.039
lclavicle 1.12313e-014 1.27222e-014
lhumerus -17.8198 12.5321 10.5745
lradius 93.141
lwrist 53.0285
lhand -0.641806 -27.5828
lfingers 7.12502
lthumb 24.9755 0.804863
rfemur 14.4884 1.04279 19.9596
rtibia 6.04305e-014
rfoot -20.515 -10.7252
rtoes -15.1919
lfemur -2.05939 -5.00497 -8.45078
ltibia 26.6874
lfoot -24.0265 6.92059
ltoes -57.2039
622
root -0.643889 18.5077 6.83221 -1.42288 2.65099 -5.67542
lowerback 8.07299 -0.342036 3.26936
upperback -5.81654 0.0402395 0.784313
thorax -10.7915 -0.188724 -1.00032
lowerneck -15.9911 -2.78516 -3.10029
upperneck 31.9458 -4.06467 2.67231
head 13.5879 -1.79578 0.934551
rclavicle -1.14301e-015 -1.19271e-015
rhumerus -28.067 -16.8916 8.82932
rradius 92.8603
rwrist -47.3987
rhand 34.998 -26.9973
rfingers 7.12502
rthumb 58.1355 -42.5965
lclavicle -1.14301e-015 -1.19271e-015
lhumerus -18.47 13.6081 9.7883
lradius 91.8492
lwrist 52.8058
lhand -0.910113 -27.6493
lfingers 7.12502
lthumb 24.7184 0.773841
rfemur 14.4971 1.13298 20.0024
rtibia 2.54444e-014
rfoot -20.5147 -10.6844
rtoes -14.9401
lfemur -1.96819 -5.04136 -8.44123
ltibia 26.6126
lfoot -24.0633 7.03975
ltoes -57.2367
